<svg preserveAspectRatio="none" width="100%" height="100%" overflow="visible" style="display: block;" viewBox="0 0 12 12" fill="none" xmlns="http://www.w3.org/2000/svg">
<g id="Vector">
<path fill-rule="evenodd" clip-rule="evenodd" d="M4.33333 0C4.88562 0 5.33333 0.447715 5.33333 1V4.33333C5.33333 4.88562 4.88562 5.33333 4.33333 5.33333H1C0.447715 5.33333 0 4.88562 0 4.33333V1C0 0.447715 0.447715 0 1 0H4.33333ZM1 4.33333H4.33333V1H1V4.33333Z" fill="currentColor"/>
<path fill-rule="evenodd" clip-rule="evenodd" d="M11 0C11.5523 0 12 0.447715 12 1V2.66667C12 3.21895 11.5523 3.66667 11 3.66667H7.66667C7.11438 3.66667 6.66667 3.21895 6.66667 2.66667V1C6.66667 0.447715 7.11438 0 7.66667 0H11ZM7.66667 2.66667H11V1H7.66667V2.66667Z" fill="currentColor"/>
<path fill-rule="evenodd" clip-rule="evenodd" d="M11 5C11.5523 5 12 5.44772 12 6V11C12 11.5523 11.5523 12 11 12H7.66667C7.11438 12 6.66667 11.5523 6.66667 11V6C6.66667 5.44772 7.11438 5 7.66667 5H11ZM7.66667 11H11V6H7.66667V11Z" fill="currentColor"/>
<path fill-rule="evenodd" clip-rule="evenodd" d="M4.33333 6.66667C4.88562 6.66667 5.33333 7.11438 5.33333 7.66667V11C5.33333 11.5523 4.88562 12 4.33333 12H1C0.447715 12 0 11.5523 0 11V7.66667C0 7.11438 0.447715 6.66667 1 6.66667H4.33333ZM1 11H4.33333V7.66667H1V11Z" fill="currentColor"/>
</g>
</svg>
