<svg viewBox="0 0 16 16" fill="none" xmlns="http://www.w3.org/2000/svg">
  <path d="M7.25 1.75C7.25 1.33579 7.58579 1 8 1C8.41421 1 8.75 1.33579 8.75 1.75V8.18934L11.2197 5.71967C11.5126 5.42678 11.9874 5.42678 12.2803 5.71967C12.5732 6.01256 12.5732 6.48744 12.2803 6.78033L8.53033 10.5303C8.23744 10.8232 7.76256 10.8232 7.46967 10.5303L3.71967 6.78033C3.42678 6.48744 3.42678 6.01256 3.71967 5.71967C4.01256 5.42678 4.48744 5.42678 4.78033 5.71967L7.25 8.18934V1.75Z" fill="currentColor"/>
  <path d="M2.75 10.25C3.16421 10.25 3.5 10.5858 3.5 11V12.5H12.5V11C12.5 10.5858 12.8358 10.25 13.25 10.25C13.6642 10.25 14 10.5858 14 11V12.75C14 13.4404 13.4404 14 12.75 14H3.25C2.55964 14 2 13.4404 2 12.75V11C2 10.5858 2.33579 10.25 2.75 10.25Z" fill="currentColor"/>
</svg>
