<svg viewBox="0 0 12 14" fill="none" xmlns="http://www.w3.org/2000/svg">
<path fill-rule="evenodd" clip-rule="evenodd" d="M5.41251 0.082099C5.58939 -0.0273663 5.81587 -0.0273663 5.99275 0.082099C8.30688 1.51423 10.5 4.2778 10.5 7.15217C10.5 10.0114 8.48528 12.25 6 12.25C3.51472 12.25 1.5 10.0114 1.5 7.15217C1.5 5.4399 2.32186 3.67443 3.54068 2.25335C3.69052 2.07859 3.9387 2.02505 4.14618 2.12272C4.35366 2.22039 4.4687 2.4449 4.42685 2.67049C4.33446 3.16843 4.30747 3.65872 4.35579 4.10748C4.45185 4.9998 4.78846 5.57183 5.27248 5.79783C5.75471 4.95939 5.99726 4.01582 5.99726 2.96813C5.99726 2.14336 5.83275 1.37307 5.38685 0.718855C5.25357 0.523322 5.26379 0.205623 5.41251 0.082099ZM6.50495 1.6802C6.83237 2.97181 6.51035 4.72448 5.85665 5.94344C5.67256 6.28682 5.24052 6.41245 4.90061 6.22202C3.98919 5.71148 3.53527 4.83086 3.36146 3.93278C2.82012 4.91605 2.5 6.04083 2.5 7.15217C2.5 9.50708 4.11929 11.25 6 11.25C7.88071 11.25 9.5 9.50708 9.5 7.15217C9.5 5.13468 8.20245 3.02513 6.50495 1.6802ZM6.13793 7.27417C6.28697 7.13098 6.51323 7.10342 6.69214 7.20666C7.5365 7.69373 8 8.47456 8 9.2967C8 10.3471 7.16053 11.25 6 11.25C4.83947 11.25 4 10.3471 4 9.2967C4 8.7842 4.19866 8.27645 4.55404 7.85432C4.70614 7.67366 4.96513 7.62459 5.17303 7.73704C5.38093 7.84948 5.48006 8.09224 5.40997 8.31782C5.3479 8.51758 5.39069 8.6809 5.4805 8.78659C5.74073 8.30265 5.95954 7.44558 6.13793 7.27417Z" fill="currentColor"/>
</svg>
